STARTFONT 2.1
FONT sansb12
SIZE 13 75 75
FONTBOUNDINGBOX 11 14 0 -3

STARTPROPERTIES 10
COPYRIGHT "Share and enjoy."
POINT_SIZE 130
WEIGHT 10
RESOLUTION_X 75
RESOLUTION_Y 75
X_HEIGHT 11
QUAD_WIDTH 11
DEFAULT_CHAR 0
FONT_DESCENT 3
FONT_ASCENT 11
ENDPROPERTIES

CHARS 125

STARTCHAR C002
ENCODING 2
SWIDTH 846 0
DWIDTH 11 0
BBX 11 14 0 -3
BITMAP
0000
0C00
0C00
0000
0C00
0C00
1800
3000
3300
3300
1E00
0000
0000
0000
ENDCHAR

STARTCHAR C003
ENCODING 3
SWIDTH 846 0
DWIDTH 11 0
BBX 11 14 0 -3
BITMAP
0000
0000
0000
0000
3E00
6300
6000
6000
6300
6300
3E00
0000
0C00
1800
ENDCHAR

STARTCHAR C004
ENCODING 4
SWIDTH 846 0
DWIDTH 11 0
BBX 11 14 0 -3
BITMAP
0000
1980
1980
0000
0000
0000
0000
0000
0000
0000
0000
0000
0000
0000
ENDCHAR

STARTCHAR C005
ENCODING 5
SWIDTH 846 0
DWIDTH 11 0
BBX 11 14 0 -3
BITMAP
0600
0300
0180
0000
0000
0000
0000
0000
0000
0000
0000
0000
0000
0000
ENDCHAR

STARTCHAR C006
ENCODING 6
SWIDTH 846 0
DWIDTH 11 0
BBX 11 14 0 -3
BITMAP
0000
39C0
6300
6300
FFC0
6300
6300
6300
6300
6300
6300
0000
0000
0000
ENDCHAR

STARTCHAR C007
ENCODING 7
SWIDTH 846 0
DWIDTH 11 0
BBX 11 14 0 -3
BITMAP
0000
0C00
1800
1800
1C00
1C00
0000
0000
0000
0000
0000
0000
0000
0000
ENDCHAR

STARTCHAR C010
ENCODING 8
SWIDTH 846 0
DWIDTH 11 0
BBX 11 14 0 -3
BITMAP
0000
0C00
0C00
0000
0C00
0C00
0C00
0C00
0C00
0C00
0C00
0000
0000
0000
ENDCHAR

STARTCHAR C011
ENCODING 9
SWIDTH 846 0
DWIDTH 11 0
BBX 11 14 0 -3
BITMAP
0000
0000
0000
0000
0000
0000
0000
0000
0000
0000
0000
0000
0000
0000
ENDCHAR

STARTCHAR C012
ENCODING 10
SWIDTH 846 0
DWIDTH 11 0
BBX 11 14 0 -3
BITMAP
0000
0000
0000
0000
0000
0000
0000
0000
0000
0000
0000
0000
0000
0000
ENDCHAR

STARTCHAR C013
ENCODING 11
SWIDTH 846 0
DWIDTH 11 0
BBX 11 14 0 -3
BITMAP
0300
0600
0C00
0000
0000
0000
0000
0000
0000
0000
0000
0000
0000
0000
ENDCHAR

STARTCHAR C014
ENCODING 12
SWIDTH 846 0
DWIDTH 11 0
BBX 11 14 0 -3
BITMAP
0000
0000
0000
0000
0000
0000
0000
0000
0000
0000
0000
0000
0000
0000
ENDCHAR

STARTCHAR C015
ENCODING 13
SWIDTH 846 0
DWIDTH 11 0
BBX 11 14 0 -3
BITMAP
0000
0000
0000
0000
0000
0000
0000
0000
0000
0000
0000
0000
0000
0000
ENDCHAR

STARTCHAR C016
ENCODING 14
SWIDTH 846 0
DWIDTH 11 0
BBX 11 14 0 -3
BITMAP
0000
0F80
0F80
0000
0000
0000
0000
0000
0000
0000
0000
0000
0000
0000
ENDCHAR

STARTCHAR C017
ENCODING 15
SWIDTH 846 0
DWIDTH 11 0
BBX 11 14 0 -3
BITMAP
0000
0000
0000
0000
0000
0000
0000
0000
0000
0000
0000
0000
0000
0000
ENDCHAR

STARTCHAR C020
ENCODING 16
SWIDTH 846 0
DWIDTH 11 0
BBX 11 14 0 -3
BITMAP
0000
1D80
3700
0000
0000
0000
0000
0000
0000
0000
0000
0000
0000
0000
ENDCHAR

STARTCHAR C021
ENCODING 17
SWIDTH 846 0
DWIDTH 11 0
BBX 11 14 0 -3
BITMAP
0000
77C0
CCC0
CC00
FFC0
CCC0
CCC0
CCC0
CCC0
CCC0
CCC0
0000
0000
0000
ENDCHAR

STARTCHAR C022
ENCODING 18
SWIDTH 846 0
DWIDTH 11 0
BBX 11 14 0 -3
BITMAP
0000
77C0
CCC0
CCC0
FFC0
CCC0
CCC0
CCC0
CCC0
CCC0
CCC0
0000
0000
0000
ENDCHAR

STARTCHAR C023
ENCODING 19
SWIDTH 846 0
DWIDTH 11 0
BBX 11 14 0 -3
BITMAP
0000
0000
0000
0000
0000
0000
FFE0
FFE0
0000
0000
0000
0000
0000
0000
ENDCHAR

STARTCHAR C024
ENCODING 20
SWIDTH 846 0
DWIDTH 11 0
BBX 11 14 0 -3
BITMAP
0000
1D80
3180
3000
7D80
3180
3180
3180
3180
3180
3180
0000
0000
0000
ENDCHAR

STARTCHAR C025
ENCODING 21
SWIDTH 846 0
DWIDTH 11 0
BBX 11 14 0 -3
BITMAP
0000
1D80
3180
3180
7D80
3180
3180
3180
3180
3180
3180
0000
0000
0000
ENDCHAR

STARTCHAR C026
ENCODING 22
SWIDTH 846 0
DWIDTH 11 0
BBX 11 14 0 -3
BITMAP
0000
0000
0000
0000
0000
0000
7F80
7F80
0000
0000
0000
0000
0000
0000
ENDCHAR

STARTCHAR C027
ENCODING 23
SWIDTH 846 0
DWIDTH 11 0
BBX 11 14 0 -3
BITMAP
1080
1F80
0F00
0000
0000
0000
0000
0000
0000
0000
0000
0000
0000
0000
ENDCHAR

STARTCHAR C030
ENCODING 24
SWIDTH 846 0
DWIDTH 11 0
BBX 11 14 0 -3
BITMAP
0000
0000
0000
0000
0000
0000
3F00
3F00
0000
0000
0000
0000
0000
0000
ENDCHAR

STARTCHAR C031
ENCODING 25
SWIDTH 846 0
DWIDTH 11 0
BBX 11 14 0 -3
BITMAP
0000
0000
0000
0000
0000
0000
0000
0000
0000
0000
0000
0000
0000
0000
ENDCHAR

STARTCHAR C032
ENCODING 26
SWIDTH 846 0
DWIDTH 11 0
BBX 11 14 0 -3
BITMAP
0000
0000
0000
0000
0000
0000
0000
0000
0000
0000
0000
0000
0000
0000
ENDCHAR

STARTCHAR C033
ENCODING 27
SWIDTH 846 0
DWIDTH 11 0
BBX 11 14 0 -3
BITMAP
0000
0000
0000
0000
0000
0000
0000
0000
0000
0000
0000
0000
0000
0000
ENDCHAR

STARTCHAR C034
ENCODING 28
SWIDTH 846 0
DWIDTH 11 0
BBX 11 14 0 -3
BITMAP
0000
0000
0000
0000
0000
0000
0000
0000
0000
0000
0000
0000
0000
0000
ENDCHAR

STARTCHAR C035
ENCODING 29
SWIDTH 846 0
DWIDTH 11 0
BBX 11 14 0 -3
BITMAP
0000
0000
0000
0000
0000
0000
0000
0000
0000
0000
0000
0000
0300
0300
ENDCHAR

STARTCHAR C036
ENCODING 30
SWIDTH 846 0
DWIDTH 11 0
BBX 11 14 0 -3
BITMAP
0000
1D80
3700
0000
0000
0000
0000
0000
0000
0000
0000
0000
0000
0000
ENDCHAR

STARTCHAR C037
ENCODING 31
SWIDTH 846 0
DWIDTH 11 0
BBX 11 14 0 -3
BITMAP
0700
0D80
0D80
0700
0000
0000
0000
0000
0000
0000
0000
0000
0000
0000
ENDCHAR

STARTCHAR C040
ENCODING 32
SWIDTH 846 0
DWIDTH 11 0
BBX 11 14 0 -3
BITMAP
0000
0000
0000
0000
0000
0000
0000
0000
0000
0000
0000
0000
0000
0000
ENDCHAR

STARTCHAR !
ENCODING 33
SWIDTH 846 0
DWIDTH 11 0
BBX 11 14 0 -3
BITMAP
0000
0C00
0C00
0C00
0C00
0C00
0C00
0C00
0000
0C00
0C00
0000
0000
0000
ENDCHAR

STARTCHAR "
ENCODING 34
SWIDTH 846 0
DWIDTH 11 0
BBX 11 14 0 -3
BITMAP
0000
1B00
1B00
1B00
1B00
0000
0000
0000
0000
0000
0000
0000
0000
0000
ENDCHAR

STARTCHAR #
ENCODING 35
SWIDTH 846 0
DWIDTH 11 0
BBX 11 14 0 -3
BITMAP
0000
0CC0
0CC0
1980
7FC0
3300
3300
FF80
6600
CC00
CC00
0000
0000
0000
ENDCHAR

STARTCHAR $
ENCODING 36
SWIDTH 846 0
DWIDTH 11 0
BBX 11 14 0 -3
BITMAP
0400
1F00
3580
3580
3400
3E00
0F00
0580
3580
3580
1F00
0400
0000
0000
ENDCHAR

STARTCHAR %
ENCODING 37
SWIDTH 846 0
DWIDTH 11 0
BBX 11 14 0 -3
BITMAP
0000
7300
D300
D600
7600
0C00
0C00
1980
1BC0
13C0
1180
0000
0000
0000
ENDCHAR

STARTCHAR &
ENCODING 38
SWIDTH 846 0
DWIDTH 11 0
BBX 11 14 0 -3
BITMAP
0000
1C00
3600
3600
1400
1C00
3EC0
6380
6300
6780
3DC0
0000
0000
0000
ENDCHAR

STARTCHAR '
ENCODING 39
SWIDTH 846 0
DWIDTH 11 0
BBX 11 14 0 -3
BITMAP
0000
1C00
1C00
0C00
0C00
1800
0000
0000
0000
0000
0000
0000
0000
0000
ENDCHAR

STARTCHAR (
ENCODING 40
SWIDTH 846 0
DWIDTH 11 0
BBX 11 14 0 -3
BITMAP
0000
0600
0C00
0C00
1800
1800
1800
1800
1800
1800
0C00
0C00
0600
0000
ENDCHAR

STARTCHAR )
ENCODING 41
SWIDTH 846 0
DWIDTH 11 0
BBX 11 14 0 -3
BITMAP
0000
1800
0C00
0C00
0600
0600
0600
0600
0600
0600
0C00
0C00
1800
0000
ENDCHAR

STARTCHAR *
ENCODING 42
SWIDTH 846 0
DWIDTH 11 0
BBX 11 14 0 -3
BITMAP
0400
1500
0E00
0E00
1500
0400
0000
0000
0000
0000
0000
0000
0000
0000
ENDCHAR

STARTCHAR +
ENCODING 43
SWIDTH 846 0
DWIDTH 11 0
BBX 11 14 0 -3
BITMAP
0000
0000
0000
0C00
0C00
0C00
7F80
7F80
0C00
0C00
0C00
0000
0000
0000
ENDCHAR

STARTCHAR ,
ENCODING 44
SWIDTH 846 0
DWIDTH 11 0
BBX 11 14 0 -3
BITMAP
0000
0000
0000
0000
0000
0000
0000
0000
0000
0C00
0C00
0400
0400
0800
ENDCHAR

STARTCHAR -
ENCODING 45
SWIDTH 846 0
DWIDTH 11 0
BBX 11 14 0 -3
BITMAP
0000
0000
0000
0000
0000
0000
1F80
1F80
0000
0000
0000
0000
0000
0000
ENDCHAR

STARTCHAR .
ENCODING 46
SWIDTH 846 0
DWIDTH 11 0
BBX 11 14 0 -3
BITMAP
0000
0000
0000
0000
0000
0000
0000
0000
0000
0C00
0C00
0000
0000
0000
ENDCHAR

STARTCHAR /
ENCODING 47
SWIDTH 846 0
DWIDTH 11 0
BBX 11 14 0 -3
BITMAP
0000
0300
0300
0600
0600
0C00
0C00
1800
1800
3000
3000
0000
0000
0000
ENDCHAR

STARTCHAR 0
ENCODING 48
SWIDTH 846 0
DWIDTH 11 0
BBX 11 14 0 -3
BITMAP
0000
0E00
1B00
3180
3180
3180
3180
3180
3180
1B00
0E00
0000
0000
0000
ENDCHAR

STARTCHAR 1
ENCODING 49
SWIDTH 846 0
DWIDTH 11 0
BBX 11 14 0 -3
BITMAP
0000
0300
0700
1F00
0300
0300
0300
0300
0300
0300
0300
0000
0000
0000
ENDCHAR

STARTCHAR 2
ENCODING 50
SWIDTH 846 0
DWIDTH 11 0
BBX 11 14 0 -3
BITMAP
0000
1F00
3180
3180
0180
0300
0600
0C00
1800
3000
3F80
0000
0000
0000
ENDCHAR

STARTCHAR 3
ENCODING 51
SWIDTH 846 0
DWIDTH 11 0
BBX 11 14 0 -3
BITMAP
0000
1F00
3180
3180
0180
0700
0180
0180
3180
3180
1F00
0000
0000
0000
ENDCHAR

STARTCHAR 4
ENCODING 52
SWIDTH 846 0
DWIDTH 11 0
BBX 11 14 0 -3
BITMAP
0000
0300
0700
0F00
0B00
1B00
3300
3300
3F80
0300
0300
0000
0000
0000
ENDCHAR

STARTCHAR 5
ENCODING 53
SWIDTH 846 0
DWIDTH 11 0
BBX 11 14 0 -3
BITMAP
0000
1F80
1800
1800
3F00
3180
3180
0180
3180
3180
1F00
0000
0000
0000
ENDCHAR

STARTCHAR 6
ENCODING 54
SWIDTH 846 0
DWIDTH 11 0
BBX 11 14 0 -3
BITMAP
0000
0F00
1980
3180
3000
3F00
3180
3180
3180
3180
1F00
0000
0000
0000
ENDCHAR

STARTCHAR 7
ENCODING 55
SWIDTH 846 0
DWIDTH 11 0
BBX 11 14 0 -3
BITMAP
0000
3F80
0180
0300
0600
0600
0C00
0C00
1800
1800
1800
0000
0000
0000
ENDCHAR

STARTCHAR 8
ENCODING 56
SWIDTH 846 0
DWIDTH 11 0
BBX 11 14 0 -3
BITMAP
0000
1F00
3180
3180
3180
1F00
3180
3180
3180
3180
1F00
0000
0000
0000
ENDCHAR

STARTCHAR 9
ENCODING 57
SWIDTH 846 0
DWIDTH 11 0
BBX 11 14 0 -3
BITMAP
0000
1F00
3180
3180
3180
3180
1F80
0180
3180
3300
1E00
0000
0000
0000
ENDCHAR

STARTCHAR :
ENCODING 58
SWIDTH 846 0
DWIDTH 11 0
BBX 11 14 0 -3
BITMAP
0000
0000
0000
0000
0C00
0C00
0000
0000
0000
0C00
0C00
0000
0000
0000
ENDCHAR

STARTCHAR ;
ENCODING 59
SWIDTH 846 0
DWIDTH 11 0
BBX 11 14 0 -3
BITMAP
0000
0000
0000
0000
0C00
0C00
0000
0000
0000
0C00
0C00
0400
0400
0800
ENDCHAR

STARTCHAR <
ENCODING 60
SWIDTH 846 0
DWIDTH 11 0
BBX 11 14 0 -3
BITMAP
0000
0300
0600
0C00
1800
3000
3000
1800
0C00
0600
0300
0000
0000
0000
ENDCHAR

STARTCHAR =
ENCODING 61
SWIDTH 846 0
DWIDTH 11 0
BBX 11 14 0 -3
BITMAP
0000
0000
0000
0000
0000
1F00
1F00
0000
1F00
1F00
0000
0000
0000
0000
ENDCHAR

STARTCHAR >
ENCODING 62
SWIDTH 846 0
DWIDTH 11 0
BBX 11 14 0 -3
BITMAP
0000
3000
1800
0C00
0600
0300
0300
0600
0C00
1800
3000
0000
0000
0000
ENDCHAR

STARTCHAR ?
ENCODING 63
SWIDTH 846 0
DWIDTH 11 0
BBX 11 14 0 -3
BITMAP
0000
1E00
3300
3300
0300
0600
0C00
0C00
0000
0C00
0C00
0000
0000
0000
ENDCHAR

STARTCHAR @
ENCODING 64
SWIDTH 846 0
DWIDTH 11 0
BBX 11 14 0 -3
BITMAP
0000
3F00
6180
DEC0
D3C0
D3C0
D3C0
D380
DD00
6040
3F80
0000
0000
0000
ENDCHAR

STARTCHAR A
ENCODING 65
SWIDTH 846 0
DWIDTH 11 0
BBX 11 14 0 -3
BITMAP
0000
0C00
0C00
1E00
1E00
1200
3300
3F00
3300
6180
6180
0000
0000
0000
ENDCHAR

STARTCHAR B
ENCODING 66
SWIDTH 846 0
DWIDTH 11 0
BBX 11 14 0 -3
BITMAP
0000
7C00
6600
6600
6600
7E00
6300
6300
6300
6300
7E00
0000
0000
0000
ENDCHAR

STARTCHAR C
ENCODING 67
SWIDTH 846 0
DWIDTH 11 0
BBX 11 14 0 -3
BITMAP
0000
1F00
3180
6180
6000
6000
6000
6180
6180
3180
1F00
0000
0000
0000
ENDCHAR

STARTCHAR D
ENCODING 68
SWIDTH 846 0
DWIDTH 11 0
BBX 11 14 0 -3
BITMAP
0000
7E00
6300
6180
6180
6180
6180
6180
6180
6300
7E00
0000
0000
0000
ENDCHAR

STARTCHAR E
ENCODING 69
SWIDTH 846 0
DWIDTH 11 0
BBX 11 14 0 -3
BITMAP
0000
7F00
6000
6000
6000
7E00
6000
6000
6000
6000
7F00
0000
0000
0000
ENDCHAR

STARTCHAR F
ENCODING 70
SWIDTH 846 0
DWIDTH 11 0
BBX 11 14 0 -3
BITMAP
0000
7F00
6000
6000
6000
7E00
6000
6000
6000
6000
6000
0000
0000
0000
ENDCHAR

STARTCHAR G
ENCODING 71
SWIDTH 846 0
DWIDTH 11 0
BBX 11 14 0 -3
BITMAP
0000
3F00
6180
C180
C000
C000
C780
C180
C180
6380
3D80
0000
0000
0000
ENDCHAR

STARTCHAR H
ENCODING 72
SWIDTH 846 0
DWIDTH 11 0
BBX 11 14 0 -3
BITMAP
0000
6180
6180
6180
6180
7F80
6180
6180
6180
6180
6180
0000
0000
0000
ENDCHAR

STARTCHAR I
ENCODING 73
SWIDTH 846 0
DWIDTH 11 0
BBX 11 14 0 -3
BITMAP
0000
0C00
0C00
0C00
0C00
0C00
0C00
0C00
0C00
0C00
0C00
0000
0000
0000
ENDCHAR

STARTCHAR J
ENCODING 74
SWIDTH 846 0
DWIDTH 11 0
BBX 11 14 0 -3
BITMAP
0000
0300
0300
0300
0300
0300
0300
0300
3300
3300
1E00
0000
0000
0000
ENDCHAR

STARTCHAR K
ENCODING 75
SWIDTH 846 0
DWIDTH 11 0
BBX 11 14 0 -3
BITMAP
0000
6300
6600
6C00
7800
7000
7800
6C00
6600
6300
6180
0000
0000
0000
ENDCHAR

STARTCHAR L
ENCODING 76
SWIDTH 846 0
DWIDTH 11 0
BBX 11 14 0 -3
BITMAP
0000
3000
3000
3000
3000
3000
3000
3000
3000
3000
3F00
0000
0000
0000
ENDCHAR

STARTCHAR M
ENCODING 77
SWIDTH 846 0
DWIDTH 11 0
BBX 11 14 0 -3
BITMAP
0000
C1C0
C1C0
E3C0
E3C0
B6C0
B6C0
B6C0
9CC0
9CC0
88C0
0000
0000
0000
ENDCHAR

STARTCHAR N
ENCODING 78
SWIDTH 846 0
DWIDTH 11 0
BBX 11 14 0 -3
BITMAP
0000
6180
7180
7180
7980
7980
6D80
6D80
6780
6780
6380
0000
0000
0000
ENDCHAR

STARTCHAR O
ENCODING 79
SWIDTH 846 0
DWIDTH 11 0
BBX 11 14 0 -3
BITMAP
0000
3E00
6300
C180
C180
C180
C180
C180
C180
6300
3E00
0000
0000
0000
ENDCHAR

STARTCHAR P
ENCODING 80
SWIDTH 846 0
DWIDTH 11 0
BBX 11 14 0 -3
BITMAP
0000
7E00
6300
6300
6300
6300
7E00
6000
6000
6000
6000
0000
0000
0000
ENDCHAR

STARTCHAR Q
ENCODING 81
SWIDTH 846 0
DWIDTH 11 0
BBX 11 14 0 -3
BITMAP
0000
3E00
6300
C180
C180
C180
C180
C180
CD80
6700
3F00
0180
0000
0000
ENDCHAR

STARTCHAR R
ENCODING 82
SWIDTH 846 0
DWIDTH 11 0
BBX 11 14 0 -3
BITMAP
0000
7F00
6180
6180
6180
7F00
6180
6180
6180
6180
6180
0000
0000
0000
ENDCHAR

STARTCHAR S
ENCODING 83
SWIDTH 846 0
DWIDTH 11 0
BBX 11 14 0 -3
BITMAP
0000
3E00
6300
6300
7800
3E00
0F00
6300
6300
6300
3E00
0000
0000
0000
ENDCHAR

STARTCHAR T
ENCODING 84
SWIDTH 846 0
DWIDTH 11 0
BBX 11 14 0 -3
BITMAP
0000
7F80
0C00
0C00
0C00
0C00
0C00
0C00
0C00
0C00
0C00
0000
0000
0000
ENDCHAR

STARTCHAR U
ENCODING 85
SWIDTH 846 0
DWIDTH 11 0
BBX 11 14 0 -3
BITMAP
0000
6180
6180
6180
6180
6180
6180
6180
6180
3300
1E00
0000
0000
0000
ENDCHAR

STARTCHAR V
ENCODING 86
SWIDTH 846 0
DWIDTH 11 0
BBX 11 14 0 -3
BITMAP
0000
6180
6180
6180
3300
3300
3300
1200
1E00
0C00
0C00
0000
0000
0000
ENDCHAR

STARTCHAR W
ENCODING 87
SWIDTH 846 0
DWIDTH 11 0
BBX 11 14 0 -3
BITMAP
0000
88C0
88C0
DD80
DD80
DD80
5F00
7700
7300
3300
3300
0000
0000
0000
ENDCHAR

STARTCHAR X
ENCODING 88
SWIDTH 846 0
DWIDTH 11 0
BBX 11 14 0 -3
BITMAP
0000
6180
6180
3300
1E00
0C00
0C00
1E00
3300
6180
6180
0000
0000
0000
ENDCHAR

STARTCHAR Y
ENCODING 89
SWIDTH 846 0
DWIDTH 11 0
BBX 11 14 0 -3
BITMAP
0000
6180
6180
3300
3300
1E00
0C00
0C00
0C00
0C00
0C00
0000
0000
0000
ENDCHAR

STARTCHAR Z
ENCODING 90
SWIDTH 846 0
DWIDTH 11 0
BBX 11 14 0 -3
BITMAP
0000
7F80
0180
0300
0600
0C00
0C00
1800
3000
6000
7F80
0000
0000
0000
ENDCHAR

STARTCHAR [
ENCODING 91
SWIDTH 846 0
DWIDTH 11 0
BBX 11 14 0 -3
BITMAP
0000
1F00
1800
1800
1800
1800
1800
1800
1800
1800
1800
1800
1800
1F00
ENDCHAR

STARTCHAR \
ENCODING 92
SWIDTH 846 0
DWIDTH 11 0
BBX 11 14 0 -3
BITMAP
0000
3000
3000
1800
1800
0C00
0C00
0600
0600
0300
0300
0000
0000
0000
ENDCHAR

STARTCHAR ]
ENCODING 93
SWIDTH 846 0
DWIDTH 11 0
BBX 11 14 0 -3
BITMAP
0000
1F00
0300
0300
0300
0300
0300
0300
0300
0300
0300
0300
0300
1F00
ENDCHAR

STARTCHAR ^
ENCODING 94
SWIDTH 846 0
DWIDTH 11 0
BBX 11 14 0 -3
BITMAP
0000
0000
0C00
1E00
3F00
2D00
0C00
0C00
0C00
0C00
0000
0000
0000
0000
ENDCHAR

STARTCHAR _
ENCODING 95
SWIDTH 846 0
DWIDTH 11 0
BBX 11 14 0 -3
BITMAP
0000
0000
0000
1800
3000
7F80
7F80
3000
1800
0000
0000
0000
0000
0000
ENDCHAR

STARTCHAR `
ENCODING 96
SWIDTH 846 0
DWIDTH 11 0
BBX 11 14 0 -3
BITMAP
0000
0C00
1800
1800
1C00
1C00
0000
0000
0000
0000
0000
0000
0000
0000
ENDCHAR

STARTCHAR a
ENCODING 97
SWIDTH 846 0
DWIDTH 11 0
BBX 11 14 0 -3
BITMAP
0000
0000
0000
0000
3C00
6600
0600
3E00
6600
6600
3B00
0000
0000
0000
ENDCHAR

STARTCHAR b
ENCODING 98
SWIDTH 846 0
DWIDTH 11 0
BBX 11 14 0 -3
BITMAP
0000
6000
6000
6000
7E00
6300
6300
6300
6300
6300
7E00
0000
0000
0000
ENDCHAR

STARTCHAR c
ENCODING 99
SWIDTH 846 0
DWIDTH 11 0
BBX 11 14 0 -3
BITMAP
0000
0000
0000
0000
3E00
6300
6000
6000
6300
6300
3E00
0000
0000
0000
ENDCHAR

STARTCHAR d
ENCODING 100
SWIDTH 846 0
DWIDTH 11 0
BBX 11 14 0 -3
BITMAP
0000
0300
0300
0300
3F00
6300
6300
6300
6300
6300
3F00
0000
0000
0000
ENDCHAR

STARTCHAR e
ENCODING 101
SWIDTH 846 0
DWIDTH 11 0
BBX 11 14 0 -3
BITMAP
0000
0000
0000
0000
3E00
6300
6300
7F00
6000
6300
3E00
0000
0000
0000
ENDCHAR

STARTCHAR f
ENCODING 102
SWIDTH 846 0
DWIDTH 11 0
BBX 11 14 0 -3
BITMAP
0000
0E00
1800
1800
3E00
1800
1800
1800
1800
1800
1800
0000
0000
0000
ENDCHAR

STARTCHAR g
ENCODING 103
SWIDTH 846 0
DWIDTH 11 0
BBX 11 14 0 -3
BITMAP
0000
0000
0000
0000
3F00
6300
6300
6300
6300
6300
3F00
0300
6300
3E00
ENDCHAR

STARTCHAR h
ENCODING 104
SWIDTH 846 0
DWIDTH 11 0
BBX 11 14 0 -3
BITMAP
0000
6000
6000
6000
7E00
6300
6300
6300
6300
6300
6300
0000
0000
0000
ENDCHAR

STARTCHAR i
ENCODING 105
SWIDTH 846 0
DWIDTH 11 0
BBX 11 14 0 -3
BITMAP
0000
0C00
0C00
0000
0C00
0C00
0C00
0C00
0C00
0C00
0C00
0000
0000
0000
ENDCHAR

STARTCHAR j
ENCODING 106
SWIDTH 846 0
DWIDTH 11 0
BBX 11 14 0 -3
BITMAP
0000
0600
0600
0000
0600
0600
0600
0600
0600
0600
0600
0600
1C00
0000
ENDCHAR

STARTCHAR k
ENCODING 107
SWIDTH 846 0
DWIDTH 11 0
BBX 11 14 0 -3
BITMAP
0000
6000
6000
6000
6600
6C00
7800
7800
6C00
6600
6300
0000
0000
0000
ENDCHAR

STARTCHAR l
ENCODING 108
SWIDTH 846 0
DWIDTH 11 0
BBX 11 14 0 -3
BITMAP
0000
0C00
0C00
0C00
0C00
0C00
0C00
0C00
0C00
0C00
0C00
0000
0000
0000
ENDCHAR

STARTCHAR m
ENCODING 109
SWIDTH 846 0
DWIDTH 11 0
BBX 11 14 0 -3
BITMAP
0000
0000
0000
0000
FB80
CCC0
CCC0
CCC0
CCC0
CCC0
CCC0
0000
0000
0000
ENDCHAR

STARTCHAR n
ENCODING 110
SWIDTH 846 0
DWIDTH 11 0
BBX 11 14 0 -3
BITMAP
0000
0000
0000
0000
7E00
6300
6300
6300
6300
6300
6300
0000
0000
0000
ENDCHAR

STARTCHAR o
ENCODING 111
SWIDTH 846 0
DWIDTH 11 0
BBX 11 14 0 -3
BITMAP
0000
0000
0000
0000
3E00
6300
6300
6300
6300
6300
3E00
0000
0000
0000
ENDCHAR

STARTCHAR p
ENCODING 112
SWIDTH 846 0
DWIDTH 11 0
BBX 11 14 0 -3
BITMAP
0000
0000
0000
0000
7E00
6300
6300
6300
6300
6300
7E00
6000
6000
6000
ENDCHAR

STARTCHAR q
ENCODING 113
SWIDTH 846 0
DWIDTH 11 0
BBX 11 14 0 -3
BITMAP
0000
0000
0000
0000
3F00
6300
6300
6300
6300
6300
3F00
0300
0300
0300
ENDCHAR

STARTCHAR r
ENCODING 114
SWIDTH 846 0
DWIDTH 11 0
BBX 11 14 0 -3
BITMAP
0000
0000
0000
0000
3E00
3600
3000
3000
3000
3000
3000
0000
0000
0000
ENDCHAR

STARTCHAR s
ENCODING 115
SWIDTH 846 0
DWIDTH 11 0
BBX 11 14 0 -3
BITMAP
0000
0000
0000
0000
1E00
3300
3800
1E00
0700
3300
1E00
0000
0000
0000
ENDCHAR

STARTCHAR t
ENCODING 116
SWIDTH 846 0
DWIDTH 11 0
BBX 11 14 0 -3
BITMAP
0000
0000
1800
1800
3E00
1800
1800
1800
1800
1800
0E00
0000
0000
0000
ENDCHAR

STARTCHAR u
ENCODING 117
SWIDTH 846 0
DWIDTH 11 0
BBX 11 14 0 -3
BITMAP
0000
0000
0000
0000
6300
6300
6300
6300
6300
6300
3F00
0000
0000
0000
ENDCHAR

STARTCHAR v
ENCODING 118
SWIDTH 846 0
DWIDTH 11 0
BBX 11 14 0 -3
BITMAP
0000
0000
0000
0000
6180
6180
3300
3300
1200
1E00
0C00
0000
0000
0000
ENDCHAR

STARTCHAR w
ENCODING 119
SWIDTH 846 0
DWIDTH 11 0
BBX 11 14 0 -3
BITMAP
0000
0000
0000
0000
88C0
88C0
DD80
DD80
F780
6300
6300
0000
0000
0000
ENDCHAR

STARTCHAR x
ENCODING 120
SWIDTH 846 0
DWIDTH 11 0
BBX 11 14 0 -3
BITMAP
0000
0000
0000
0000
3300
3300
1E00
0C00
1E00
3300
3300
0000
0000
0000
ENDCHAR

STARTCHAR y
ENCODING 121
SWIDTH 846 0
DWIDTH 11 0
BBX 11 14 0 -3
BITMAP
0000
0000
0000
0000
6300
6300
3300
3600
1600
1E00
0C00
0C00
6C00
3800
ENDCHAR

STARTCHAR z
ENCODING 122
SWIDTH 846 0
DWIDTH 11 0
BBX 11 14 0 -3
BITMAP
0000
0000
0000
0000
3F00
0300
0600
0C00
1800
3000
3F00
0000
0000
0000
ENDCHAR

STARTCHAR {
ENCODING 123
SWIDTH 846 0
DWIDTH 11 0
BBX 11 14 0 -3
BITMAP
0000
0700
0C00
0C00
0C00
0C00
0C00
3800
0C00
0C00
0C00
0C00
0C00
0700
ENDCHAR

STARTCHAR |
ENCODING 124
SWIDTH 846 0
DWIDTH 11 0
BBX 11 14 0 -3
BITMAP
0000
0600
0600
0600
0600
0600
0600
0600
0600
0600
0600
0600
0600
0600
ENDCHAR

STARTCHAR }
ENCODING 125
SWIDTH 846 0
DWIDTH 11 0
BBX 11 14 0 -3
BITMAP
0000
3800
0C00
0C00
0C00
0C00
0C00
0700
0C00
0C00
0C00
0C00
0C00
3800
ENDCHAR

STARTCHAR ~
ENCODING 126
SWIDTH 846 0
DWIDTH 11 0
BBX 11 14 0 -3
BITMAP
0000
0000
0000
0000
0000
1980
3F00
6600
0000
0000
0000
0000
0000
0000
ENDCHAR
ENDFONT
